PathFileType	4	(X/Y/Z)	./resultDataOpenSim/trcMotMarkerGrf/sub06/qtm-13-08.trc
DataRate	CameraRate	NumFrames	NumMarkers	Units	OrigDataRate	OrigDataStartFrame	OrigNumFrames
250.000000	250.000000	6	24	m	250.000000	1	523
Frame#	Time	L.Toe.Tip			R.Toe.Tip			L.Ankle.Lat			R.Ankle.Lat			L.Ankle.Med			R.Ankle.Med			L.Heel			R.Heel			L.Knee.Lat			R.Knee.Lat			L.Knee.Med			R.Knee.Med			L.Thigh.Upper			R.Thigh.Upper			L.ASIS			R.ASIS			V.Sacral			L.Acromium			R.Acromium			C7			L.Elbow			R.Elbow			L.Wrist.Lat			R.Wrist.Lat
		X1	Y1	Z1	X2	Y2	Z2	X3	Y3	Z3	X4	Y4	Z4	X5	Y5	Z5	X6	Y6	Z6	X7	Y7	Z7	X8	Y8	Z8	X9	Y9	Z9	X10	Y10	Z10	X11	Y11	Z11	X12	Y12	Z12	X13	Y13	Z13	X14	Y14	Z14	X15	Y15	Z15	X16	Y16	Z16	X17	Y17	Z17	X18	Y18	Z18	X19	Y19	Z19	X20	Y20	Z20	X21	Y21	Z21	X22	Y22	Z22	X23	Y23	Z23	X24	Y24	Z24

1	0	-1.5186078	0.031745945	-0.099163123	-1.2489138	0.063144522	0.10611719	-1.6422644	0.069756838	-0.10571862	-1.377918	0.09451525	0.108023	-1.6291454	0.081240283	-0.02190962	-1.3454902	0.11411663	0.025401212	NaN	NaN	NaN	-1.4230604	0.072177159	0.035579328	-1.5154853	0.42112106	-0.1304416	-1.2889083	0.47510228	0.13422444	-1.5213727	0.4233801	-0.0097209003	-1.3055258	0.45900847	0.0078424548	-1.4736919	0.81213246	-0.19788576	-1.465248	0.80758421	0.15206829	-1.3959323	0.85481734	-0.15571264	-1.3850933	0.86023186	0.086994812	-1.5672719	0.94014158	-0.014484694	-1.4136721	1.3387307	-0.21526337	-1.412149	1.3328721	0.14477572	-1.4857655	1.3761948	-0.035884861	-1.4526094	1.0206445	-0.28296978	-1.5468711	1.0459656	0.22182405	-1.2572303	0.8628385	-0.28373769	-1.411522	0.83634214	0.22845545
2	0.004	-1.5186673	0.031746839	-0.09913199	-1.2310068	0.06381124	0.10622717	-1.6421763	0.069996967	-0.10556434	-1.3606845	0.092013693	0.1077712	-1.6289911	0.081487856	-0.021814464	-1.3284983	0.11249692	0.025167932	NaN	NaN	NaN	-1.405008	0.068576646	0.035067964	-1.5147379	0.42105562	-0.13024709	-1.2820707	0.47503697	0.1336833	-1.5203002	0.4233691	-0.0095859986	-1.2986089	0.45851051	0.0072729969	-1.4689223	0.81117669	-0.19776063	-1.4589611	0.80704269	0.15230711	-1.3910576	0.85379462	-0.15590616	-1.3792894	0.85948284	0.086911348	-1.5618631	0.93914157	-0.014555044	-1.4082787	1.3381054	-0.21500519	-1.4071048	1.3317879	0.14515976	-1.4804529	1.3754357	-0.035531569	-1.4447374	1.0196833	-0.28338259	-1.5427376	1.0454247	0.22146406	-1.2472958	0.86442327	-0.28250158	-1.4098292	0.83452538	0.22840735
3	0.008	-1.5187183	0.031743847	-0.099104086	-1.2131229	0.064561914	0.10633579	-1.6421059	0.070239593	-0.10539865	-1.3435547	0.08955694	0.10753752	-1.6287974	0.081735687	-0.021737488	-1.311576	0.11096624	0.025026175	NaN	NaN	NaN	-1.3869469	0.065111403	0.03462644	-1.5139215	0.42098106	-0.13006083	-1.2752437	0.47488824	0.13316278	-1.5192673	0.42335376	-0.0094422325	-1.2916403	0.45792913	0.0066863286	-1.464177	0.81022808	-0.19768098	-1.4526637	0.80646372	0.15256354	-1.386195	0.85272655	-0.15611903	-1.3734827	0.85868143	0.086827526	-1.5564342	0.93803803	-0.014675699	-1.4028956	1.3374532	-0.21473334	-1.4020343	1.3306542	0.14553001	-1.4751336	1.3746225	-0.035236797	-1.436853	1.0187017	-0.28376048	-1.5386176	1.0448069	0.22113445	-1.2373987	0.8659833	-0.28124766	-1.4081134	0.83269278	0.22835975
4	0.012	-1.5187582	0.031737755	-0.099082778	-1.1952502	0.065476969	0.10646318	-1.6420539	0.070488628	-0.10522169	-1.3264857	0.087211106	0.10735438	-1.628547	0.08198976	-0.021682832	-1.2948086	0.10959042	0.025051291	NaN	NaN	NaN	-1.368854	0.061875123	0.03426478	-1.5129889	0.42088822	-0.12989129	-1.2683951	0.47461218	0.13267483	-1.5182362	0.42333515	-0.009290631	-1.2846134	0.4572253	0.006065523	-1.4594356	0.80925409	-0.19766842	-1.4463176	0.80582295	0.15283264	-1.3812795	0.85160563	-0.15633039	-1.3676643	0.85780252	0.086740134	-1.5509638	0.93674805	-0.014883254	-1.3975006	1.3367523	-0.21443581	-1.3969161	1.3294387	0.14588905	-1.4697887	1.3737381	-0.034966429	-1.4289466	1.0176782	-0.28410957	-1.5345455	1.0441022	0.22082451	-1.2275486	0.86750445	-0.27996341	-1.4063543	0.83082539	0.22830472
5	0.016	-1.5187882	0.031730953	-0.099070835	-1.1773791	0.066612023	0.10663761	-1.641984	0.070746436	-0.1050621	-1.3093685	0.085067535	0.10725894	-1.628238	0.082255328	-0.021640898	-1.2783117	0.10839793	0.025274965	NaN	NaN	NaN	-1.3507506	0.058899065	0.033974954	-1.5119263	0.42077079	-0.12974247	-1.2615003	0.4742093	0.13221362	-1.5171332	0.42330931	-0.0091369175	-1.2775623	0.45640807	0.0053993555	-1.4546917	0.80822688	-0.19768857	-1.4398702	0.80511251	0.1531289	-1.3762293	0.8504495	-0.15649749	-1.3618345	0.85684753	0.086652833	-1.5454532	0.93527854	-0.015124698	-1.3920702	1.3359881	-0.21411775	-1.3917511	1.328135	0.14624598	-1.4644186	1.3727919	-0.034677053	-1.4210359	1.0165979	-0.28449713	-1.5305574	1.0433397	0.22051468	-1.2177575	0.86897736	-0.27864907	-1.4045427	0.8289066	0.22823442
6	0.02	-1.5188056	0.031723176	-0.099069185	-1.1594962	0.067993633	0.10687002	-1.6418097	0.071013269	-0.10499125	-1.2921501	0.083189962	0.10725852	-1.6278678	0.082528296	-0.021604552	-1.2620636	0.10738268	0.025632642	NaN	NaN	NaN	-1.3326734	0.056151879	0.033784968	-1.5107317	0.42062313	-0.12961144	-1.2546075	0.47368792	0.1317486	-1.5159285	0.42325845	-0.0089792631	-1.270507	0.45550123	0.0046858622	-1.4499847	0.80714757	-0.19769742	-1.4332834	0.80432108	0.15347596	-1.3709996	0.84927593	-0.15658517	-1.355984	0.85582207	0.086578127	-1.5399046	0.9337347	-0.0152699	-1.3865957	1.3351483	-0.21380307	-1.3865475	1.3267471	0.14660514	-1.4590335	1.3717934	-0.034374752	-1.4131516	1.0154445	-0.28506665	-1.5266128	1.0425199	0.22020721	-1.2080327	0.87039839	-0.2773147	-1.4026693	0.82692549	0.22815236
